<svg width="46" height="40" viewBox="0 0 46 40" fill="none" xmlns="http://www.w3.org/2000/svg">
<path d="M6.09145 27.2704H9.67601V29.0866H6.09145C5.61351 29.0866 5.18336 29.4689 5.18336 29.9947C5.18336 30.5204 5.56572 30.9027 6.09145 30.9027H28.4591C28.937 30.9027 29.3672 31.2851 29.3672 31.8108C29.3672 32.2888 28.9848 32.7189 28.4591 32.7189H6.04366C4.56204 32.7189 3.36719 31.5241 3.36719 30.0425C3.36719 28.4652 4.60983 27.2704 6.09145 27.2704ZM5.42233 21.105L7.19072 20.9616C7.19072 20.9138 6.09145 14.366 5.85248 13.0277C5.7091 12.263 5.42233 10.1123 2.69807 10.1123V11.9285C3.79733 11.9285 3.94072 12.3586 4.0363 13.1711C4.32307 14.5094 5.42233 21.0094 5.42233 21.105Z" fill="#B2C1C0"/>
<path d="M5.32795 14.7007H29.5596C30.4677 14.7007 30.611 15.561 30.4677 16.0389L27.7434 28.1786C27.6 28.6566 27.1221 29.0389 26.5963 29.0389H7.57427C7.09633 29.0389 6.61839 28.6566 6.5228 28.1308L4.51545 15.561C4.46765 15.1308 4.85001 14.7007 5.32795 14.7007ZM28.1735 18.7632L28.6515 16.947C28.6993 16.708 28.5559 16.5169 28.3169 16.5169H24.9235C24.6846 16.5169 24.4456 16.708 24.4456 16.947L24.2544 18.7632C24.2066 19.0022 24.3978 19.1933 24.6368 19.1933H27.6478C27.8868 19.1933 28.1257 19.0022 28.1735 18.7632ZM26.6441 23.208C26.8831 23.208 27.1221 23.0169 27.2177 22.7779L27.5522 21.3919C27.6 21.1529 27.4566 20.9617 27.2177 20.9617H24.4934C24.2544 20.9617 24.0154 21.1529 24.0154 21.3919L23.8721 22.7301C23.8243 22.9691 24.0154 23.1602 24.2544 23.1602C24.2066 23.208 26.6441 23.208 26.6441 23.208ZM23.7765 27.2705H25.6404C25.8794 27.2705 26.1184 27.0794 26.214 26.8404L26.5485 25.4544C26.5963 25.2154 26.4529 25.0242 26.214 25.0242H24.0632C23.8243 25.0242 23.5853 25.2154 23.5853 25.4544L23.4419 26.7926C23.3463 27.0316 23.5375 27.2705 23.7765 27.2705ZM18.2802 26.7926C18.2802 27.0316 18.4713 27.2227 18.7103 27.2227H21.0522C21.2912 27.2227 21.5302 27.0316 21.5302 26.7926L21.6735 25.4544C21.7213 25.2154 21.5302 25.0242 21.2912 25.0242H18.7103C18.4713 25.0242 18.2802 25.2154 18.2802 25.4544V26.7926ZM18.2802 22.7779C18.2802 23.0169 18.4713 23.208 18.7103 23.208H21.4824C21.7213 23.208 21.9603 23.0169 21.9603 22.7779L22.1037 21.4397C22.1515 21.2007 21.9603 21.0095 21.7213 21.0095H18.7103C18.4713 21.0095 18.2802 21.2007 18.2802 21.4397V22.7779ZM18.2802 18.7632C18.2802 19.0022 18.4713 19.1933 18.7103 19.1933H21.9125C22.1515 19.1933 22.3904 19.0022 22.3904 18.7632L22.6294 16.947C22.6772 16.708 22.486 16.5169 22.2471 16.5169H18.7581C18.5191 16.5169 18.3279 16.708 18.3279 16.947C18.2802 16.947 18.2802 18.7632 18.2802 18.7632ZM13.4052 26.7926C13.4529 27.0316 13.6441 27.2227 13.8831 27.2227H15.986C16.225 27.2227 16.4162 27.0316 16.4162 26.7926V25.4544C16.4162 25.2154 16.225 25.0242 15.986 25.0242H13.6441C13.4052 25.0242 13.214 25.2154 13.2618 25.4544L13.4052 26.7926ZM12.975 22.7779C13.0228 23.0169 13.214 23.208 13.4529 23.208H15.986C16.225 23.208 16.4162 23.0169 16.4162 22.7779V21.4397C16.4162 21.2007 16.225 21.0095 15.986 21.0095H13.214C12.975 21.0095 12.7838 21.2007 12.8316 21.4397L12.975 22.7779ZM12.5449 18.7632C12.5927 19.0022 12.7838 19.1933 13.0228 19.1933H15.986C16.225 19.1933 16.4162 19.0022 16.4162 18.7632V16.947C16.4162 16.708 16.225 16.5169 15.986 16.5169H12.736C12.4971 16.5169 12.3059 16.708 12.3537 16.947L12.5449 18.7632ZM8.38677 26.7926C8.43456 27.0316 8.67353 27.2227 8.91251 27.2227H11.2066C11.4456 27.2227 11.6368 27.0316 11.589 26.7926L11.4456 25.4544C11.3978 25.2154 11.2066 25.0242 10.9677 25.0242H8.53015C8.29118 25.0242 8.10001 25.2154 8.1478 25.4544L8.38677 26.7926ZM7.76545 22.7779C7.81324 23.0169 8.05221 23.208 8.29118 23.208H10.8243C11.0632 23.208 11.2544 23.0169 11.2066 22.7779L11.0632 21.4397C11.0154 21.2007 10.8243 21.0095 10.5853 21.0095H7.95662C7.71765 21.0095 7.52648 21.2007 7.57427 21.4397L7.76545 22.7779ZM7.14412 18.7632C7.19192 19.0022 7.43089 19.1933 7.66986 19.1933H10.3941C10.6331 19.1933 10.8243 19.0022 10.7765 18.7632L10.5853 16.947C10.5375 16.708 10.3463 16.5169 10.1074 16.5169H7.28751C7.04854 16.5169 6.85736 16.708 6.90515 16.947L7.14412 18.7632Z" fill="#F15744"/>
<path d="M25.5931 38.4545C24.1149 38.4545 22.9166 37.2562 22.9166 35.778C22.9166 34.2999 24.1149 33.1016 25.5931 33.1016C27.0712 33.1016 28.2695 34.2999 28.2695 35.778C28.2695 37.2562 27.0712 38.4545 25.5931 38.4545Z" fill="#62727A"/>
<path d="M25.5915 37.1159C24.8524 37.1159 24.2532 36.5168 24.2532 35.7777C24.2532 35.0386 24.8524 34.4395 25.5915 34.4395C26.3305 34.4395 26.9297 35.0386 26.9297 35.7777C26.9297 36.5168 26.3305 37.1159 25.5915 37.1159Z" fill="white"/>
<path d="M9.43681 38.4545C7.95864 38.4545 6.76034 37.2562 6.76034 35.778C6.76034 34.2999 7.95864 33.1016 9.43681 33.1016C10.915 33.1016 12.1133 34.2999 12.1133 35.778C12.1133 37.2562 10.915 38.4545 9.43681 38.4545Z" fill="#62727A"/>
<path d="M8.09892 35.7777C8.09892 36.5424 8.72024 37.1159 9.43716 37.1159C10.2019 37.1159 10.7754 36.4946 10.7754 35.7777C10.7754 35.013 10.1541 34.4395 9.43716 34.4395C8.72024 34.4395 8.09892 35.013 8.09892 35.7777Z" fill="white"/>
<path d="M2.26919 9.77783H3.60742V12.4543H2.26919C2.03022 12.4543 1.83904 12.2631 1.83904 12.0242V10.208C1.83904 9.96901 2.03022 9.77783 2.26919 9.77783Z" fill="#62727A"/>
<path d="M25.5912 32.1934C27.5508 32.1934 29.1758 33.8184 29.1758 35.7779H22.0067C22.0067 33.7706 23.5839 32.1934 25.5912 32.1934ZM9.43681 32.1934C11.3964 32.1934 13.0214 33.8184 13.0214 35.7779H5.85225C5.85225 33.7706 7.47725 32.1934 9.43681 32.1934Z" fill="#F15744"/>
<circle cx="35.2938" cy="11.1165" r="10.7059" fill="#FFC403"/>
</svg>
