<svg width="1379" height="1000" viewBox="0 0 1379 1000" fill="none" xmlns="http://www.w3.org/2000/svg">
<path fill-rule="evenodd" clip-rule="evenodd" d="M484.74 186.17C483.74 184.98 482.36 183.78 481.29 182.75C479.88 181.64 474.55 179.82 469.38 178.67C464.52 177.67 459.65 176.67 454.44 175.77C449.23 174.87 445.2 174.94 446.04 175.93C446.89 176.887 447.597 177.961 448.14 179.12C449.2 180.55 454.77 182.5 460.86 183.5C466.29 184.5 471.71 185.5 476.86 186.57C482.58 187.84 486.36 187.72 484.78 186.17H484.74ZM527.23 199.33C525.64 198.03 524.02 196.79 522.67 195.74C519.098 193.724 515.353 192.031 511.48 190.68C507.4 189.26 503.303 187.897 499.19 186.59C494.43 185.15 491.42 184.75 492.82 185.82C494.22 186.89 495.55 188.05 496.82 189.27C498.09 190.64 503.47 193.08 508.49 194.59C513.18 196.09 517.55 197.54 521.9 199.05C526.6 200.72 529.06 200.89 527.23 199.33V199.33ZM563.34 216.01C561.75 214.78 559.85 213.43 558.2 212.29C556.2 211.03 551.9 208.55 548.37 206.68C545.103 205.02 541.82 203.4 538.52 201.82C534.58 200.01 532.96 199.56 534.63 200.69C535.98 201.69 537.63 202.9 539.2 204.16C542.543 206.522 546.106 208.555 549.84 210.23C553.43 211.94 557 213.69 560.26 215.34C564.07 217.37 565.45 217.67 563.34 216.01ZM414.49 184.48C414.65 186.57 415.1 188.83 415.49 191.26C415.88 194.11 409.59 196.26 401.69 196.07C394.357 195.957 387.057 195.957 379.79 196.07C371.57 196.33 365.59 194.07 365.98 191.26C366.41 188.84 366.55 186.6 366.98 184.49C367.41 182.38 373.74 180.49 380.78 180.23C387.49 180.13 393.89 180.13 400.61 180.23C407.74 180.44 414.01 182.34 414.49 184.48ZM467.49 190.66C468.61 192.73 469.68 194.93 470.7 197.24C471.91 199.98 467.06 201.39 460.02 200.34C453.307 199.407 446.59 198.583 439.87 197.87C432.55 197.19 426.1 194.38 425.48 191.68C425.1 189.41 424.39 187.24 423.97 185.24C423.55 183.24 428.81 182.1 435.51 182.74C441.57 183.407 447.623 184.17 453.67 185.03C460.01 186.01 466.34 188.55 467.47 190.66H467.49ZM516.22 202.55C517.8 204.61 519.32 206.75 521.07 209.1C522.69 211.7 519.49 212.63 513.39 210.89C507.89 209.42 502.08 207.94 496.56 206.66C490.14 205.23 483.69 201.86 482.56 199.31C481.26 197.05 480.22 194.99 478.82 192.95C477.72 190.95 481.55 190.43 487.55 191.8C492.9 193.11 497.93 194.4 503.26 195.87C508.59 197.34 514.61 200.48 516.2 202.55H516.22ZM558.28 218.72C560.39 220.92 562.17 223.01 563.89 225.16C566.06 227.8 563.89 228.23 559.36 226.33C554.83 224.43 550.36 222.64 545.83 220.91C540.68 219.03 535.02 215.42 533.09 212.84C531.617 210.74 530.09 208.71 528.51 206.75C526.63 204.64 529.22 204.48 534.13 206.32C538.41 207.99 542.68 209.72 546.63 211.37C551.13 213.36 556.41 216.69 558.26 218.72H558.28ZM593.01 237.85C594.86 239.79 596.93 241.97 598.69 243.99C600.89 246.51 599.81 246.79 596.41 244.72C593.27 242.88 589.85 240.89 586.41 238.97C582.63 236.97 577.71 233.19 575.78 230.82C574.03 228.75 571.95 226.55 570.38 224.76C568.24 222.61 569.78 222.66 573.56 224.76C576.74 226.54 579.9 228.37 583.04 230.25C586.585 232.469 589.916 235.013 592.99 237.85H593.01ZM619.74 258.2C621.613 260.1 623.45 262.03 625.25 263.99C627.48 266.47 627.25 266.71 624.71 264.53C622.65 262.85 620.317 260.973 617.71 258.9C614.648 256.535 611.791 253.915 609.17 251.07C607.38 249.07 605.55 247.15 603.69 245.23C601.55 243.13 602.27 243.31 604.91 245.32C607.27 247.18 609.6 249.07 611.65 250.77C614.12 252.95 617.56 256.1 619.74 258.2ZM449.88 220.01C449.213 216.263 448.453 212.69 447.6 209.29C446.76 205.76 440.03 202.42 432.51 201.75C425.59 201.23 418.39 200.75 411.51 200.46C403.71 200.2 397.65 202.8 397.57 206.3C397.78 209.69 397.69 213.3 397.89 217C398.06 221.36 405.11 225.23 413.38 225.48C421.1 225.813 428.837 226.257 436.59 226.81C444.89 227.53 450.97 224.45 449.88 220.01ZM509.08 229.3C507.7 225.76 506.5 222.45 504.93 219.13C503.62 215.83 496.93 211.92 490.27 210.5C484.27 209.3 478.18 208.2 471.84 207.11C464.91 206.02 460.11 207.85 461.15 211.22C461.89 214.4 462.84 217.8 463.72 221.34C464.72 225.44 471.72 229.77 479.09 230.82C485.92 231.92 492.49 233.04 499.09 234.27C506.28 235.75 510.74 233.49 509.08 229.33V229.3ZM601.91 261.69C599.98 258.57 598.22 255.69 596.16 252.69C594.1 249.69 589.4 245.69 585.33 243.57C581.53 241.67 577.703 239.843 573.85 238.09C569.41 236.09 567.31 236.94 569.1 239.92C570.89 242.9 572.63 245.84 574.53 249.06C576.26 252.46 581.7 257.06 586.41 259.06C590.29 260.7 594.41 262.62 598.22 264.43C602.33 266.47 603.93 265.18 601.91 261.72V261.69ZM633.5 281.11C631.7 278.33 629.853 275.577 627.96 272.85C625.443 269.513 622.479 266.538 619.15 264.01C616.67 262.33 613.93 260.46 611.15 258.65C607.82 256.49 606.81 257.14 608.93 260.12C610.797 262.88 612.61 265.667 614.37 268.48C616.816 272.189 619.982 275.368 623.68 277.83C626.68 279.83 629.27 281.44 632.02 283.32C634.99 285.49 635.43 284.23 633.5 281.14V281.11ZM655.97 300.56C654.32 298.07 652.63 295.56 651.11 293.4C649.017 290.537 646.745 287.808 644.31 285.23C642.64 283.6 640.73 281.74 639 280.17C636.78 278.17 636.6 278.76 638.54 281.46C640.253 283.907 641.92 286.387 643.54 288.9C645.586 292.037 647.993 294.923 650.71 297.5C652.66 299.32 654.38 300.92 656.07 302.5C657.97 304.47 657.97 303.65 655.97 300.59V300.56ZM418.3 782.9C418.1 786.82 417.58 790.56 417.3 794.07C416.73 797.73 410.04 800.81 401.91 801.07C394.38 801.18 386.85 801.18 379.62 801.07C371.49 800.83 364.51 797.73 363.94 794.07C363.68 790.56 363.16 786.82 362.94 782.9C362.55 778.32 369.29 774.66 378.38 774.9C386.63 775.01 394.6 775.01 402.85 774.9C411.97 774.65 418.74 778.32 418.3 782.9ZM535.65 764.63C534.083 768.103 532.417 771.477 530.65 774.75C528.87 778.1 522.54 782.15 516.19 783.96C510.73 785.373 504.973 786.803 498.92 788.25C492.55 789.63 488.17 788.16 489.57 784.79C490.69 781.63 492 778.24 493.22 774.73C494.5 770.73 501.39 766.13 508.34 764.73C514.71 763.31 520.83 761.91 526.97 760.38C533.74 758.59 537.51 760.56 535.65 764.63ZM441.37 813.63C442.01 811.63 442.62 809.53 443.5 807.23C444.29 804.56 438.71 802.9 431.38 803.56C424.66 804.07 417.94 804.49 410.92 804.83C403.59 805.07 397.23 807.5 396.98 810.15C397.076 812.258 397.012 814.371 396.79 816.47C396.79 818.47 402.29 819.89 409.01 819.66C415.4 819.34 421.48 818.95 427.55 818.48C434.26 817.82 440.41 815.67 441.37 813.6V813.63ZM492.37 804.5C493.703 802.5 495.007 800.41 496.28 798.23C497.71 795.67 493.99 794.55 487.55 795.95C481.73 797.12 475.55 798.28 469.47 799.35C462.73 800.42 456.47 803.4 455.68 805.88C454.85 808.04 453.98 810.07 453.08 811.99C452.18 813.91 456.56 814.69 462.6 813.71C468.31 812.71 473.7 811.71 479.09 810.55C485.04 809.18 490.96 806.49 492.32 804.47L492.37 804.5ZM537.87 790.3C539.73 788.24 541.26 786.3 543.01 784.07C544.94 781.54 542.4 780.9 537.24 782.73C532.38 784.39 527.507 785.97 522.62 787.47C517.11 789.09 511.04 792.56 509.62 794.95C508.08 797.11 506.78 799.07 505.44 800.95C503.79 802.95 507 803.22 512.3 801.61C516.97 800.13 521.3 798.71 525.95 797.1C530.83 795.27 536.23 792.2 537.82 790.27L537.87 790.3ZM576.34 772.46C578.2 770.51 580.01 768.51 582.05 766.28C584.09 764.05 582.52 763.58 578.71 765.53C574.9 767.48 571.35 769.15 567.5 770.96C563.05 772.96 558.01 776.51 556.06 778.96C554.28 781.06 552.74 782.96 551.15 784.78C549.27 786.78 551.15 786.78 555.09 785.06C559.03 783.34 562.52 781.46 566.09 779.66C569.778 777.684 573.204 775.255 576.29 772.43L576.34 772.46ZM606.97 752.61C608.837 750.71 610.673 748.777 612.48 746.81C614.48 744.57 614.09 744.14 611.14 746.3C608.68 748.01 605.94 749.88 603.14 751.72C599.717 753.946 596.562 756.56 593.74 759.51C591.953 761.51 590.12 763.46 588.24 765.36C586.36 767.27 587.46 767.09 590.24 765.3C593.02 763.51 595.73 761.56 598.18 759.83C601.235 757.589 604.153 755.168 606.92 752.58L606.97 752.61ZM412.54 824.51C412.369 825.696 412 826.845 411.45 827.91C411.19 828.91 405.95 829.85 399.35 830.06C393.74 830.14 387.8 830.14 382.19 830.06C375.59 829.85 370.36 828.9 369.76 827.89C369.5 826.89 369.25 825.75 369 824.51C368.45 822.99 374 821.92 381.11 822.14C387.55 822.24 393.993 822.24 400.44 822.14C407.52 821.92 413.09 823.01 412.54 824.51ZM461.42 819.01C460.499 820.209 459.514 821.357 458.47 822.45C457.67 823.45 451.92 825.05 446.04 825.97C440.81 826.71 435.56 827.37 429.98 827.97C424.06 828.54 419.73 828.22 419.98 827.27C420.606 826.272 421.062 825.177 421.33 824.03C421.84 822.6 427.52 820.91 434.28 820.26C440.06 819.62 446.16 818.85 451.94 818.04C458.34 817.01 462.43 817.52 461.42 819.01ZM506.42 808.16C505.07 809.456 503.633 810.658 502.12 811.76C500.73 812.82 495.48 814.89 490.39 816.37C485.59 817.7 481.1 818.86 476.27 820.04C471.11 821.22 467.74 821.39 468.85 820.37C469.64 819.37 470.71 818.31 471.77 817.12C473.08 815.66 478.87 813.37 484.59 812.06C489.67 810.827 494.733 809.517 499.78 808.13C505.09 806.58 508.23 806.54 506.38 808.15L506.42 808.16ZM545.89 793.01C544.01 794.43 542.39 795.64 540.74 796.79C537.186 798.858 533.513 800.714 529.74 802.35C526.06 803.9 522.06 805.54 518.34 806.99C513.98 808.62 511.67 809.08 513.04 808.05C514.71 806.88 516.04 805.77 517.66 804.47C519.28 803.17 524.49 800.37 529.13 798.64C533.43 796.96 537.41 795.35 541.66 793.53C545.91 791.71 547.74 791.49 545.89 793.01ZM344.37 177.81C345.033 176.646 345.758 175.518 346.54 174.43C347.07 173.43 352.54 172.17 358.48 171.62C364.07 171.18 369.34 170.85 374.94 170.62C380.88 170.42 385.83 171.03 385.85 171.99C385.87 172.95 385.55 174.06 385.57 175.24C385.57 176.67 379.82 178.05 373.38 178.24C367.26 178.527 361.143 178.913 355.03 179.4C348.6 180.01 343.92 179.24 344.37 177.81ZM297.08 186.11C298.41 184.83 299.46 183.72 300.86 182.6C301.94 181.6 307.28 179.77 312.77 178.54C317.63 177.54 322.503 176.603 327.39 175.73C332.93 174.83 336.63 174.91 335.79 175.89C335.29 176.83 334.48 177.89 333.69 179.08C332.94 180.45 327.05 182.46 321.29 183.39C315.85 184.35 310.423 185.393 305.01 186.52C299.28 187.79 295.81 187.57 297.08 186.11V186.11ZM254.62 199.25C256.22 197.95 257.84 196.72 259.49 195.54C262.958 193.56 266.604 191.909 270.38 190.61C274.46 189.19 278.87 187.72 282.99 186.42C287.75 184.98 290.44 184.69 289.05 185.76C287.66 186.83 286.62 187.89 285.3 189.1C283.72 190.57 278.3 193.01 273.3 194.52C268.91 195.9 264.54 197.34 259.88 198.97C255.22 200.6 252.79 200.81 254.62 199.25ZM218.5 215.93C220.38 214.53 222 213.35 223.94 212.05C225.61 210.95 230.24 208.31 233.78 206.45C237.04 204.79 240.327 203.177 243.64 201.61C247.27 199.95 249.2 199.35 247.52 200.48C245.84 201.61 244.24 202.84 242.65 204.09C239.314 206.459 235.75 208.489 232.01 210.15C228.71 211.7 225.13 213.45 221.59 215.26C218.05 217.07 216.67 217.39 218.5 215.93V215.93ZM314.39 190.62C313.446 192.873 312.375 195.07 311.18 197.2C309.97 199.94 314.82 201.34 322.18 200.2C328.6 199.34 335.32 198.52 342.03 197.81C349.36 197.14 356.11 194.3 356.43 191.63C357.12 189.32 357.52 187.19 357.94 185.19C358.36 183.19 353.39 182.01 346.74 182.67C340.68 183.337 334.627 184.09 328.58 184.93C321.85 186.01 315.52 188.51 314.39 190.62ZM265.65 202.48C264.08 204.53 262.55 206.67 261.09 208.9C259.18 211.62 262.66 212.42 268.77 210.69C274.28 209.24 279.77 207.87 285.6 206.49C292.03 205.07 298.18 201.81 299.67 199.16C300.67 197 302.02 194.85 303.11 192.9C304.2 190.95 300.38 190.38 294.69 191.65C289.34 192.95 284 194.33 278.97 195.65C273.34 197.31 267.54 200.28 265.65 202.48V202.48ZM223.59 218.62C221.75 220.62 219.97 222.74 217.97 225.06C215.8 227.7 217.97 228.13 222.77 226.06C226.99 224.35 231.5 222.55 236.03 220.82C241.18 218.94 246.85 215.33 248.78 212.76C250.25 210.66 252.07 208.49 253.65 206.53C255.23 204.57 252.65 204.4 248.04 206.09C243.747 207.75 239.48 209.477 235.24 211.27C230.74 213.26 225.74 216.43 223.59 218.62V218.62ZM189.1 237.53C186.99 239.67 185.18 241.65 183.16 243.87C180.96 246.38 182.04 246.66 185.44 244.6C188.84 242.54 192.01 240.78 195.44 238.85C199.474 236.646 203.15 233.84 206.34 230.53C208.1 228.46 209.91 226.45 211.76 224.47C213.61 222.49 212.08 222.56 208.58 224.47C205.08 226.38 201.95 228.26 198.82 230.13C195.351 232.281 192.097 234.759 189.1 237.53ZM162.1 258.06C160.227 259.96 158.387 261.89 156.58 263.85C154.58 266.09 154.83 266.33 157.12 264.39C159.41 262.45 161.77 260.61 164.12 258.77C167.182 256.405 170.039 253.785 172.66 250.94C174.71 248.74 176.54 246.8 178.4 244.94C180.26 243.08 179.83 243.01 177.18 245.02C174.82 246.873 172.487 248.76 170.18 250.68C167.95 252.6 164.26 256.01 162.12 258.06H162.1ZM331.96 220.01C332.627 216.27 333.39 212.697 334.25 209.29C335.09 205.77 341.83 202.43 349.65 201.72C356.557 201.213 363.463 200.8 370.37 200.48C378.18 200.23 384.53 202.83 384.32 206.34C384.39 209.72 384.18 213.28 383.99 217.04C384.09 221.39 376.99 225.25 368.49 225.5C360.77 225.84 353.04 226.27 345.55 226.77C337.22 227.45 331.15 224.35 331.96 220.01ZM272.74 229.26C274.13 225.72 275.61 222.26 276.91 219.09C278.49 215.68 284.91 211.89 291.57 210.47C297.62 209.28 303.95 208.09 310 207.09C316.93 206.01 322 207.77 321 211.09C320 214.41 319.29 217.66 318.41 221.2C317.41 225.3 310.41 229.62 302.75 230.75C296.2 231.75 289.35 232.96 282.75 234.19C275.82 235.57 271.33 233.3 272.74 229.26ZM221.64 243.62C223.22 240.41 225.16 237.1 226.92 234.03C228.68 230.96 234.64 226.74 239.74 225.01C244.84 223.28 249.74 221.76 254.84 220.19C260.58 218.52 264.17 219.68 262.6 222.88C261.03 226.08 259.55 229.2 258.16 232.5C256.72 236.25 250.16 240.91 244.25 242.45C238.67 244.09 233.36 245.69 228.05 247.39C222.45 249.22 219.5 247.56 221.65 243.62H221.64ZM179.9 261.62C181.83 258.5 183.83 255.42 185.65 252.62C187.73 249.56 192.65 245.41 196.75 243.31C200.29 241.61 204.117 239.787 208.23 237.84C212.42 236.04 214.52 236.89 212.72 239.84C210.92 242.79 209.19 245.75 207.54 248.84C205.54 252.42 200.11 257.01 195.64 258.84C191.52 260.67 187.42 262.59 183.59 264.39C179.49 266.35 177.89 265.06 179.91 261.6L179.9 261.62ZM148.3 281.01C150.113 278.217 151.967 275.463 153.86 272.75C156.377 269.413 159.342 266.438 162.67 263.91C165.377 262.01 168.123 260.153 170.91 258.34C174 256.4 175.01 257.05 173.13 259.82C171.25 262.59 169.44 265.35 167.67 268.17C165.144 271.951 161.903 275.202 158.13 277.74C155.31 279.507 152.53 281.333 149.79 283.22C147.03 285.1 146.37 284.09 148.3 281.01ZM125.83 300.44C127.477 297.947 129.163 295.477 130.89 293.03C132.922 290.258 135.126 287.616 137.49 285.12C139.38 283.24 141.08 281.64 143.03 279.82C144.98 278 145.21 278.66 143.48 281.11C141.75 283.56 140.1 286.03 138.25 288.79C136.201 291.925 133.795 294.811 131.08 297.39C129.32 298.95 127.4 300.8 125.71 302.39C124.02 303.98 124.02 303.23 125.83 300.43V300.44ZM295.05 249.55C293.9 254.66 292.91 259.92 291.85 265.41C290.48 271.8 296.67 276.23 305.61 275.16C313.71 274.32 321.96 273.55 330.12 272.91C339.37 272.25 347.3 266.39 347.85 260C348.37 254.42 348.73 249.08 349.44 243.9C349.91 238.5 343.33 234.76 334.93 235.43C327.31 236.143 319.66 236.977 311.98 237.93C303.96 239.01 296.22 244.19 295.05 249.54V249.55ZM235.74 261.95C234.13 266.67 232.43 271.63 230.9 276.66C229.09 282.5 233.6 285.9 240.64 284.39C247.28 283.01 254.11 281.64 260.88 280.45C268.6 279.12 276.25 272.99 277.37 267.16C278.637 261.953 279.827 256.953 280.94 252.16C282.29 247.07 277.4 244.16 270.04 245.65C263.5 247.05 257.193 248.45 251.12 249.85C244.24 251.69 237.4 257.01 235.74 261.95ZM186.46 278.59C184.68 282.85 182.8 287.35 181.03 291.88C179.12 297.01 181.71 299.88 187.13 297.94C192.017 296.373 197.127 294.743 202.46 293.05C208.38 291.32 214.7 285.47 216.46 280.05C218.113 275.29 219.677 270.757 221.15 266.45C223.08 261.66 219.74 259.5 214.15 261.33C209.15 263.06 204.1 264.91 199.35 266.69C194.3 268.7 188.49 274.01 186.5 278.59H186.46ZM148.46 297.38C146.65 301.21 144.92 305.06 143.08 309.18C141.21 313.64 142.41 316.08 146.08 314.18C149.75 312.28 153.08 310.74 156.77 309.03C161.03 307.03 166.1 301.55 167.99 296.79C169.7 292.61 171.3 288.68 173.2 284.55C175.1 280.42 173.33 278.55 169.2 280.6C165.653 282.38 162.147 284.237 158.68 286.17C155.25 288.12 150.55 293.27 148.54 297.38H148.46ZM121.16 316.57C119.58 319.82 117.86 323.37 116.16 326.93C114.43 330.82 114.72 332.93 117.16 330.93C119.387 329.303 121.663 327.717 123.99 326.17C126.64 324.49 130.49 319.44 132.3 315.29C133.88 311.72 135.72 307.92 137.42 304.39C139.33 300.6 138.57 299.17 135.82 301.12C133.39 302.92 131.2 304.51 128.82 306.41C125.729 309.337 123.165 312.774 121.24 316.57H121.16ZM103.04 335.01C101.56 337.977 100.11 340.977 98.69 344.01C97.18 347.33 96.91 349.01 98.25 347.51C99.59 346.01 100.83 344.78 102.25 343.3C104.667 340.445 106.664 337.26 108.18 333.84C109.73 330.56 111.33 327.3 112.79 324.34C114.44 321.1 114.58 319.62 112.79 321.59C111.39 323.05 110.03 324.54 108.71 326.06C106.569 328.877 104.672 331.871 103.04 335.01ZM189.84 336.28C191.2 330.28 192.55 324.49 194.06 318.68C195.54 312.68 201.84 306.36 208.06 304.68C213.68 303.33 219.69 301.78 225.69 300.4C232.24 299.09 236.86 302.92 235.38 309.4C234.26 315.3 233.14 321.4 231.88 327.72C230.78 334.67 223.95 341.51 216.82 342.83C210.6 343.95 204.53 345.097 198.61 346.27C192.24 347.64 188.22 343.26 189.84 336.32V336.28ZM144.1 349.56C145.55 344.32 146.94 339.32 148.43 334.32C150.23 328.76 155.01 323.11 159.43 321.32C163.53 319.72 167.68 318.24 172.05 316.64C177.05 314.9 179.83 318.07 178.11 323.88C176.72 329.13 175.28 334.59 173.97 340.04C172.5 346.25 167.23 352.37 162.12 353.88C157.64 355.25 153.37 356.52 149.3 357.66C144.74 359.3 142.45 355.66 144.1 349.6V349.56ZM111.55 363.91C112.93 359.38 114.37 354.91 115.74 350.63C117.41 345.82 121.01 340.63 123.81 339.06C126.61 337.49 129.18 336.16 132.19 334.43C135.41 332.86 136.77 335.56 135.26 340.33C133.75 345.1 132.26 349.77 130.96 354.49C129.5 359.79 125.66 365.16 122.26 366.79C119.39 368.06 116.72 369.13 113.99 370.54C111.26 371.95 110.18 368.75 111.55 363.91ZM90.36 377.74C91.5267 374.007 92.74 370.283 94 366.57C95.41 362.57 98 358.01 99.61 356.64C101.22 355.27 102.89 353.94 104.74 352.35C106.59 351.14 107.1 353.21 105.62 357.47C104.287 361.43 103.01 365.4 101.79 369.38C100.54 373.68 97.79 378.38 95.9 379.65C94.12 381 92.52 382.09 90.98 383.21C89.44 384.33 89.15 381.8 90.36 377.74V377.74ZM77.98 390.59C78.9867 387.43 80.0233 384.277 81.09 381.13C82.0803 378.189 83.3494 375.349 84.88 372.65C85.7 371.56 86.55 370.48 87.44 369.42C88.54 368.1 88.44 369.85 87.12 373.58C86.12 376.7 84.93 380.14 83.95 383.28C82.79 387.06 80.95 391.28 79.95 392.28C79.15 393.05 78.28 394.15 77.56 394.95C76.74 396.1 76.91 394.08 77.98 390.59ZM156.42 385.2C155.42 391.65 154.36 398.52 153.42 405.34C152.42 412.88 156.22 418.49 161.91 417.63C167.3 416.79 172.81 416.09 178.51 415.35C184.96 414.56 191.03 407.35 191.96 399.13C192.78 391.96 193.64 384.89 194.68 377.73C195.78 370.13 191.46 364.94 185.09 366.25C179.51 367.39 174.09 368.5 168.8 369.78C163.21 371.06 157.74 377.92 156.42 385.2ZM116.89 396.45C115.777 402.27 114.75 408.08 113.81 413.88C112.87 420.25 115.01 425.03 118.81 424C122.32 423.24 125.95 422.56 129.81 421.69C134.17 420.76 138.59 414.31 139.49 407.55C140.43 401.29 141.49 395.01 142.49 388.95C143.6 382.56 141.01 378.24 136.68 379.58C132.96 380.64 129.327 381.803 125.78 383.07C122.05 384.32 118.1 390.31 116.89 396.45ZM90.38 407.91C89.38 412.85 88.53 417.5 87.66 422.45C86.74 428.02 87.79 431.78 89.97 431.01C92.15 430.24 94.26 429.49 96.53 428.79C99.19 427.89 102.12 422.45 103.07 416.5C103.91 411.43 104.9 406.07 105.87 400.99C106.94 395.59 105.72 391.89 103.03 393.17C100.7 394.29 98.46 395.45 96.39 396.37C94.15 397.58 91.5 402.65 90.38 407.91ZM74.38 418.71C73.61 422.56 72.8 426.71 72.12 430.59C71.36 435.09 71.67 438.14 72.75 437.69C73.8195 436.901 74.9857 436.253 76.22 435.76C77.63 435.06 79.52 430.24 80.31 425.51C81.03 421.41 81.87 417 82.76 412.6C83.65 408.2 83.32 405.06 81.76 406.28C80.49 407.28 79.36 407.93 78.19 408.94C77.02 409.95 75.31 414.23 74.35 418.71H74.38ZM66.3 428.3C65.6333 431.56 65.01 434.823 64.43 438.09C63.81 441.7 63.63 444.36 64.06 443.76C64.49 443.16 64.99 442.58 65.51 442C66.03 441.42 67.13 437.93 67.79 434C68.4567 430.427 69.1233 426.863 69.79 423.31C70.62 419.43 70.72 417.07 70.06 417.92C69.4 418.77 69.01 419.37 68.49 420.27C67.5086 422.874 66.7656 425.562 66.27 428.3H66.3ZM125.74 475.71C126.04 469.04 126.37 462.63 126.74 456.2C127.29 448.94 131.34 442.69 135.85 442.08C140.12 441.47 144.52 440.93 149.1 440.24C154.26 439.76 158.18 445.44 157.66 453.14C157.28 460.07 156.96 466.96 156.66 474.06C156.44 481.84 151.92 488.2 146.66 488.43C142.093 488.43 137.67 488.48 133.39 488.58C128.94 488.9 125.5 482.9 125.74 475.71ZM93.13 477.51C93.39 472.14 93.71 466.76 94.13 461.09C94.62 455.09 97.24 449.78 100 449.35C102.76 448.92 105.4 448.23 108.23 447.87C111.55 447.04 113.84 452.05 113.39 458.24C112.99 464.127 112.657 470.01 112.39 475.89C112.15 482.59 109.23 488.06 105.95 488.2C103.201 488.125 100.45 488.209 97.71 488.45C94.92 488.63 92.88 483.78 93.12 477.51H93.13ZM72.98 479.51C73.2133 475.05 73.49 470.597 73.81 466.15C74.24 461.06 75.81 456.76 77.3 456.33C78.79 455.9 80.3 455.17 81.92 454.77C83.75 454.41 84.92 458.33 84.52 463.57C84.16 468.49 83.89 473.11 83.64 478.04C83.41 483.58 81.7 488.13 79.87 488.04C78.28 488.29 76.77 488.24 75.32 488.5C73.81 488.45 72.74 484.59 72.97 479.5L72.98 479.51ZM62.17 481.45C62.36 477.83 62.59 474.22 62.88 470.28C63.17 466.34 64.03 462.78 64.74 462.2C65.5023 461.948 66.2259 461.591 66.89 461.14C67.76 460.92 68.23 463.92 67.89 468.45C67.61 472.33 67.37 476.217 67.17 480.11C66.97 484.64 66.09 488.18 65.17 488.47C64.4593 488.388 63.7393 488.477 63.07 488.73C62.39 488.69 61.99 485.39 62.16 481.44L62.17 481.45ZM58.26 483.23C58.42 480.23 58.61 477.23 58.83 474.23C58.9616 472.016 59.2053 469.81 59.56 467.62C59.7219 467.289 59.9092 466.972 60.12 466.67C60.38 466.36 60.37 469.03 60.07 472.67C59.86 475.67 59.65 478.96 59.47 482.27C59.29 485.58 58.98 488.57 58.73 488.56C58.52 488.88 58.35 488.88 58.22 488.87C58.08 489.21 58.1 486.55 58.25 483.22L58.26 483.23ZM147.68 526.58C147.98 533.95 148.37 541.34 148.8 548.58C149.37 556.58 154.45 563.66 160.18 564.35C165.53 564.81 171.18 565.59 176.81 566C183.34 566.73 188.3 560.25 187.81 551.87C187.39 544.03 187.06 536.27 186.81 528.37C186.59 519.71 180.95 512.43 174.41 512.37C168.64 512.25 163.04 512.1 157.63 512.15C151.84 511.92 147.42 518.5 147.67 526.57L147.68 526.58ZM107.74 524.63C108.04 530.89 108.42 537.15 108.83 543.14C109.4 549.99 112.83 556.01 116.56 556.68C120.1 557.36 123.72 557.68 127.56 558.54C131.92 559.2 135.08 553.66 134.56 546.33C134.15 539.8 133.78 533.04 133.51 526.55C133.25 519.05 129.39 512.78 125.03 512.72C121.21 512.633 117.543 512.53 114.03 512.41C110.27 512.3 107.5 517.82 107.74 524.63ZM81.74 522.54C82.02 527.8 82.34 532.76 82.74 538.02C83.22 543.6 85.36 548.6 87.54 549.19C89.72 549.78 91.81 550.34 94.08 550.88C96.68 551.34 98.49 547.12 97.97 540.88C97.56 535.27 97.22 529.67 96.97 524.36C96.72 518.17 94.33 512.96 91.72 512.78C89.5662 512.528 87.3984 512.414 85.23 512.44C83.05 512.25 81.5 516.65 81.74 522.54ZM66.62 520.38C66.85 524.6 67.15 529.14 67.47 533.38C67.87 537.92 69.08 542.02 70.2 542.53C71.32 543.04 72.42 543.53 73.62 544.01C75.01 544.47 75.82 540.82 75.38 535.76C75.01 531.01 74.73 526.58 74.49 522.14C74.27 517.07 72.94 512.68 71.56 512.42C70.39 512.42 69.27 512.18 68.22 512.22C67.12 511.91 66.42 515.84 66.62 520.38ZM59.49 518.5C59.69 522.14 59.91 525.5 60.19 529.1C60.47 532.7 61.11 536.34 61.51 536.63C61.91 536.92 62.36 537.2 62.84 537.48C63.45 538.07 63.65 535.07 63.31 531.13C62.97 527.19 62.78 523.59 62.57 519.97C62.38 515.7 61.76 512.44 61.19 512.13C60.72 512.13 60.27 511.83 59.88 511.84C59.49 511.85 59.32 514.85 59.49 518.5ZM135.08 610.5C134.08 604.61 132.99 598.5 132.08 592.37C131.14 585.74 133.95 580.84 138.43 581.66C142.683 582.48 147.05 583.2 151.53 583.82C156.77 584.89 161.8 591.46 162.69 598.59C163.57 605.03 164.56 611.52 165.56 617.83C166.75 624.73 163.46 629.25 158.32 627.9C153.82 626.69 149.52 625.6 145.32 624.38C140.86 623.16 136.32 617.01 135.08 610.49V610.5ZM102.29 598.77C101.27 593.65 100.32 588.533 99.44 583.42C98.52 577.7 100.06 573.88 102.84 574.71C105.62 575.54 108.19 576.05 111.12 577.06C114.34 577.66 117.87 583.49 118.77 589.5C119.657 594.96 120.617 600.427 121.65 605.9C122.79 611.69 120.95 615.32 117.65 614.14C114.8 613.07 112.02 611.93 109.33 610.73C106.64 609.53 103.41 604.19 102.29 598.76V598.77ZM81.4 587.58C80.57 583.47 79.71 579.05 78.97 574.93C78.16 570.18 78.72 566.79 80.32 567.75C81.7933 568.417 83.33 569.043 84.93 569.63C86.83 570.48 89.03 575.08 89.93 580.31C90.76 584.93 91.55 589.25 92.49 593.87C93.49 598.79 92.74 601.71 90.84 600.69C89.14 599.58 87.59 598.75 86.11 597.89C84.47 596.71 82.43 592.29 81.4 587.57V587.58ZM69.66 577.51C68.9333 573.95 68.24 570.383 67.58 566.81C66.9 562.9 66.93 560.21 67.69 561.08C68.38 561.61 69.12 562.14 69.89 562.66C70.89 563.47 72.16 567.19 72.89 571.37C73.6 575.22 74.27 578.75 75.06 582.59C75.96 586.74 75.83 589.15 74.82 588.08C73.99 587.28 73.21 586.47 72.46 585.65C71.71 584.83 70.42 581.01 69.66 577.5V577.51ZM165.54 658.41C167 664.16 168.44 669.7 170.01 675.24C171.73 681.13 177.52 687.39 183.01 689.3C187.983 690.8 193.167 692.357 198.56 693.97C204.56 695.6 208.33 691.97 206.7 685.76C205.24 679.9 203.95 674.04 202.7 668C201.33 661.22 194.86 654.28 188.7 653C183.17 651.7 177.83 650.43 172.55 649C166.99 647.55 163.92 651.86 165.54 658.4V658.41ZM126.54 644.32C128.03 649.32 129.61 654.39 131.13 659.15C132.79 664.23 137.28 670.06 140.84 671.69C144.4 673.32 147.84 674.86 151.6 676.56C155.77 678.25 158.01 675.45 156.25 669.89C154.81 664.89 153.3 659.66 151.91 654.43C150.31 648.43 145.53 642.35 141.24 640.86C137.407 639.367 133.79 638.033 130.39 636.86C126.59 635.15 124.96 638.68 126.54 644.31V644.32ZM100.01 630.15C101.36 634.44 102.77 638.72 104.09 642.71C105.72 647.27 108.82 652.16 111.14 653.81C113.46 655.46 115.58 656.81 117.96 658.34C120.68 660.03 121.64 657.65 119.96 652.85C118.46 648.36 117.17 644.13 115.81 639.62C114.32 634.52 110.81 629.03 108.1 627.55C105.87 626.55 103.58 625.12 101.48 623.97C99.21 622.53 98.52 625.23 100.01 630.14V630.15ZM83.48 616.67C84.58 620.12 85.83 623.87 87.01 627.31C88.34 631.04 90.57 635.46 91.8 636.71C93.03 637.96 94.42 639.47 95.72 640.66C97.27 642.09 97.49 640.18 96.07 636.18C94.8 632.48 93.46 628.47 92.28 624.75C90.95 620.4 88.71 616.07 87.28 614.9C85.85 613.73 84.63 612.42 83.49 611.44C82.17 610.15 82.22 612.57 83.48 616.66V616.67ZM74.74 604.32C75.66 607.18 76.74 610.32 77.74 613.17C78.85 616.3 80.31 620.02 80.9 621.23C81.39 622.11 82.03 623.23 82.71 624.44C83.39 625.65 83.13 623.92 81.9 620.44C80.82 617.3 79.7733 614.153 78.76 611C77.9391 608.12 76.8406 605.327 75.48 602.66C74.91 601.8 74.37 600.93 73.86 600.04C73.2 598.87 73.63 600.83 74.74 604.32ZM264.43 745.73C263.17 741.063 261.837 736.143 260.43 730.97C258.94 725.13 264.09 721.38 271.8 722.65C279.1 723.84 286.35 724.87 293.8 725.86C302.1 726.86 309.64 732.65 310.51 738.55C311.21 743.68 312.3 748.75 313.02 753.55C314.02 758.63 308.47 761.81 300.72 760.71C293.77 759.62 287.04 758.52 280.29 757.31C273.12 755.93 265.95 750.75 264.43 745.73ZM210.04 731.01C208.3 726.63 206.69 722.19 204.98 717.53C203.15 712.26 206.52 709.28 212.45 710.91C218.01 712.39 223.78 713.897 229.76 715.43C236.29 716.92 243.01 722.69 244.59 728.14C245.83 732.8 247.22 737.4 248.75 741.91C250.27 746.6 246.27 748.98 240.15 747.41C234.6 745.87 229.05 744.23 223.75 742.62C217.89 740.68 211.74 735.51 210.04 731.01ZM166.52 713.1C164.57 709.01 162.91 705.1 161.14 700.96C159.14 696.23 161.06 693.84 165.35 695.69C169.35 697.32 173.59 699.07 177.86 700.69C182.72 702.5 188.26 708.04 189.86 712.69C191.49 716.96 193.24 721.19 194.86 725.19C196.7 729.49 194.31 731.37 189.81 729.6C185.66 727.83 181.53 725.97 177.66 724.23C172.931 721.694 169.056 717.819 166.52 713.09V713.1ZM134.05 693.9C132.32 690.39 130.64 686.9 128.84 683.03C127.04 679.16 127.89 677.12 130.78 678.97C133.45 680.57 136.16 682.12 139.1 683.84C142.2 685.42 146.58 690.65 148.32 694.84C150.03 698.67 151.61 702.24 153.47 706.02C155.33 709.8 154.13 711.33 150.95 709.47C148.1 707.72 145.29 705.9 142.72 704.28C139.135 701.461 136.181 697.922 134.05 693.89V693.9ZM111.55 675.01C109.9 671.77 108.46 668.8 106.89 665.52C105.24 661.93 105.33 660.37 107.09 662.01C108.66 663.36 110.44 665.01 112.26 666.52C114.08 668.03 117.34 672.52 118.94 676.11C120.46 679.377 122.03 682.623 123.65 685.85C125.47 689.36 125.04 690.47 122.99 688.71C121.21 687.157 119.463 685.567 117.75 683.94C115.299 681.25 113.214 678.247 111.55 675.01V675.01ZM97.19 656.91C95.8567 654.243 94.5233 651.557 93.19 648.85C91.79 645.85 91.42 644.53 92.35 645.93C93.28 647.33 94.13 648.38 95.14 649.73C96.9678 652.367 98.551 655.165 99.87 658.09C101.15 660.79 102.62 663.76 103.96 666.43C105.49 669.43 105.7 670.43 104.48 668.82C103.487 667.487 102.52 666.127 101.58 664.74C100.74 663.34 98.74 659.87 97.19 656.91ZM301.81 776.85C303.07 780.61 304.14 784.14 305.31 787.51C306.48 790.88 313.31 794.66 320.61 795.74C327.55 796.69 334.19 797.47 341.13 798.21C348.66 798.89 354.41 796.67 353.94 793.21C353.47 789.75 352.77 786.31 352.4 782.61C351.86 778.3 344.59 774.11 336.23 773.4C328.68 772.65 321.38 771.86 314.06 770.95C305.86 769.78 300.49 772.51 301.81 776.85ZM246.45 764.85C248.02 768.31 249.7 771.68 251.19 774.85C252.97 778.21 259.59 782.38 265.65 784.06C271.41 785.58 277.17 787.007 282.93 788.34C289.59 789.81 293.68 788.23 292.56 784.97C291.15 781.71 290.12 778.42 288.89 774.91C287.61 770.91 280.44 766.22 273.5 764.82C267.12 763.41 261 762.01 254.87 760.49C248.4 758.82 244.58 760.79 246.45 764.86V764.85ZM199.95 748.46C201.81 751.71 203.76 754.91 205.54 757.85C207.54 761.03 213.16 765.29 217.94 767.32C222.42 769.16 227.19 771.08 231.71 772.76C236.84 774.58 239.86 773.67 238.07 770.49C236.28 767.31 234.58 764.19 232.96 760.93C231.04 757.1 225.04 752.46 219.42 750.51C214.64 748.85 209.88 747.09 205.14 745.23C200.1 743.2 197.74 744.66 199.95 748.47V748.46ZM163.3 729.46C165.3 732.53 167.3 735.56 169.18 738.33C172.068 742.033 175.564 745.219 179.52 747.75C182.68 749.57 186.11 751.53 189.57 753.43C193.36 755.43 195.07 754.77 192.99 751.7C191.16 748.86 189.4 745.98 187.46 742.85C185.46 739.37 180.3 734.69 176.23 732.6C172.73 730.78 169.263 728.883 165.83 726.91C162.37 725.01 161.22 726.12 163.3 729.51V729.46ZM136.37 709.85C138.21 712.617 140.093 715.353 142.02 718.06C144.334 721.162 146.957 724.02 149.85 726.59C152.157 728.497 154.49 730.367 156.85 732.2C159.52 734.2 160.12 733.57 158.2 730.85C156.28 728.13 154.44 725.38 152.63 722.6C150.272 719.046 147.37 715.884 144.03 713.23C141.63 711.42 139.26 709.57 137.14 707.92C134.63 705.8 134.4 706.83 136.37 709.9V709.85ZM117.9 690.6C119.58 693.09 121.09 695.28 122.83 697.73C124.57 700.18 127.43 703.85 128.9 705.66C130.37 707.47 131.71 708.95 133.27 710.66C135.08 712.61 135.09 712.18 133.12 709.49C131.393 707.05 129.697 704.583 128.03 702.09C126.09 699.128 123.934 696.314 121.58 693.67C120.02 691.93 118.68 690.44 117.18 688.67C115.89 687.19 116.08 687.87 117.9 690.65V690.6ZM340.8 813.6C340.16 811.6 339.24 809.45 338.67 807.21C337.87 804.53 343.14 802.82 350.48 803.48C357.2 803.98 364.22 804.42 370.94 804.73C378.57 804.98 384.94 807.4 384.88 810.04C384.88 812.29 385.11 814.4 385.08 816.36C385.36 818.36 379.58 819.78 372.86 819.56C366.78 819.27 360.39 818.86 354.32 818.39C347.61 817.85 341.45 815.7 340.8 813.68V813.6ZM289.53 804.45C288.18 802.45 286.87 800.37 285.62 798.19C284.19 795.62 288.21 794.6 294.62 795.99C300.45 797.15 306.28 798.22 312.41 799.29C319.15 800.35 325.46 803.29 326.51 805.88C327.35 808.03 328.22 810.06 328.82 811.88C329.73 813.88 325.33 814.58 319.29 813.61C313.89 812.61 308.19 811.56 302.8 810.45C296.82 809.24 290.9 806.55 289.53 804.53V804.45ZM244.03 790.28C242.45 788.37 240.64 786.28 238.88 784.05C236.96 781.52 239.77 781.05 244.93 782.85C249.51 784.357 254.39 785.93 259.57 787.57C265.07 789.18 270.86 792.57 272.57 795.03C273.818 797.13 275.219 799.135 276.76 801.03C278.11 802.94 274.9 803.19 269.9 801.71C265.23 800.23 260.58 798.71 256.24 797.21C251.32 795.5 245.91 792.43 244.03 790.36V790.28ZM205.54 772.54C203.69 770.59 201.87 768.59 200.1 766.54C197.89 764.01 199.36 763.66 203.44 765.79C206.97 767.54 210.8 769.4 214.66 771.2C218.84 773.06 224.15 776.74 225.83 778.98C227.51 781.22 229.44 783.12 231.03 784.98C232.91 786.98 231.03 786.98 226.81 785.11C223.223 783.417 219.657 781.677 216.11 779.89C212.302 777.878 208.752 775.41 205.54 772.54V772.54ZM174.91 752.7C173.03 750.81 171.2 748.88 169.39 746.91C167.39 744.67 168.03 744.47 170.73 746.4C173.43 748.33 176.18 750.2 178.95 752.03C182.36 754.265 185.501 756.885 188.31 759.84C190.1 761.84 191.68 763.57 193.55 765.48C195.42 767.39 194.6 767.4 191.55 765.42C188.78 763.57 186.31 761.88 183.55 759.95C180.527 757.709 177.642 755.288 174.91 752.7V752.7ZM320.44 819.01C321.51 820.27 322.6 821.44 323.44 822.45C324.56 823.45 329.99 825.04 335.87 825.96C341.1 826.7 346.68 827.4 351.93 827.96C357.85 828.53 362.51 828.23 361.93 827.26C361.35 826.29 361.13 825.26 360.58 824.02C360.06 822.59 354.38 820.91 347.63 820.26C341.84 819.62 336.06 818.91 329.97 818.04C323.53 817.09 319.44 817.57 320.44 819.01ZM275.44 808.19C276.74 809.42 278.38 810.69 279.75 811.78C281.44 812.95 286.7 815.01 291.75 816.49C296.23 817.71 301.05 818.96 305.56 820.05C311.04 821.31 314.41 821.47 313.3 820.46C312.19 819.45 311.11 818.32 310.06 817.13C308.75 815.67 303.27 813.47 297.54 812.13C292.153 810.797 287.09 809.497 282.35 808.23C276.74 806.64 273.94 806.72 275.48 808.22L275.44 808.19ZM235.92 793.07C237.8 794.48 239.42 795.69 241.37 796.99C244.821 799.005 248.391 800.808 252.06 802.39C255.73 803.94 259.74 805.57 263.76 807.15C268.12 808.78 270.44 809.23 268.76 808.08C267.39 807.08 265.76 805.8 264.45 804.64C262.59 803.09 257.3 800.41 252.67 798.64C248.37 796.96 244.38 795.36 240.42 793.64C235.92 791.75 234.14 791.58 235.96 793.1L235.92 793.07ZM358.74 831.59C363.113 832.01 367.507 832.343 371.92 832.59C372.85 832.65 373.72 832.69 375.12 832.76L379.4 832.92C381.752 833.052 384.109 833.052 386.46 832.92C386.474 832.76 386.452 832.6 386.397 832.449C386.342 832.299 386.254 832.163 386.14 832.05C386.14 831.54 381.19 830.96 375.57 830.77C369.95 830.58 364.66 830.16 359.37 829.77C353.77 829.25 349.43 829.24 350.03 829.77C350.622 830.17 351.256 830.505 351.92 830.77C352.22 830.86 355.13 831.22 358.74 831.59ZM311.61 823.59C321.07 825.897 330.68 827.8 340.44 829.3C342.04 829.5 342.99 829.6 342.35 829.46C341.696 829.205 341.066 828.891 340.47 828.52C339.87 828.03 334.69 826.85 329.47 826C324.57 825.13 320.01 824.25 315.13 823.24C309.94 822.08 306.95 821.7 308.13 822.3C309.154 822.753 310.207 823.14 311.28 823.46C311.28 823.46 311.6 823.58 311.59 823.63L311.61 823.59ZM248.61 801.26C251.023 802.4 253.443 803.51 255.87 804.59C254.08 803.71 251.65 802.59 249.24 801.49C249.029 801.398 248.807 801.334 248.58 801.3L248.61 801.26ZM202.39 774.66L202.96 775.05L203.38 775.14C201.53 773.7 202.23 773.86 205.62 775.97C208.76 777.863 211.923 779.7 215.11 781.48C218.619 783.372 222 785.493 225.23 787.83C226.83 789.06 228.75 790.4 230.4 791.53C232.4 792.78 230.85 792.09 227.34 790.18L222.7 787.56C218 784.813 213.373 781.95 208.82 778.97C206.07 777.09 206.07 777.09 203.38 775.14L202.39 774.66ZM183.97 761.11C187.177 763.657 190.433 766.143 193.74 768.57L193.48 768.37C191.62 766.96 187.64 763.94 185 761.91L183.97 761.11ZM64.51 567.11C64.8 568.53 65.12 569.93 65.43 571.34C65.9 573.34 66.21 574.58 66.38 575.23C66.55 575.88 66.81 576.49 67.07 577.12C67.33 577.75 67.07 575.74 66.41 572.49C65.81 569.56 65.24 566.62 64.63 563.35C64.2663 560.937 63.7248 558.554 63.01 556.22C62.7902 555.813 62.5965 555.392 62.43 554.96C62.5383 556.516 62.769 558.061 63.12 559.58C63.85 563.51 63.85 563.51 64.51 567.11V567.11ZM58 512.11C58.24 518.85 58.6767 525.537 59.31 532.17C59.31 532.17 59.15 529.85 58.9 526.86C58.65 523.87 58.47 520.86 58.3 517.86C58.18 515.3 58.06 513.11 58 512.12V512.11ZM64.65 432.37C63.69 437.037 62.8333 441.723 62.08 446.43C62.32 445.12 62.66 443.16 63 441.21C63.48 438.59 64.05 435.64 64.64 432.7C64.64 432.71 64.68 432.39 64.65 432.38V432.37ZM150.05 269.92C147.15 272.92 144.32 276.05 141.54 279.19C143.35 277.19 146.21 274.09 148.19 271.91C149.23 270.8 149.47 270.53 150.05 269.93V269.92ZM321.65 174.18C311.27 176.38 301.07 179.047 291.05 182.18C289.49 182.79 289.49 182.79 287.95 183.42C286.74 184.01 289.36 183.42 294.15 182.09C298.64 180.86 303.15 179.69 307.98 178.5C313.16 177.32 318.28 175.87 319.18 175.32C320.094 174.881 321.036 174.503 322 174.19C322.32 174.12 322.32 174.11 321.65 174.19V174.18ZM356.52 168.72C349.28 169.46 342.113 170.437 335.02 171.65C333.08 172.02 331.47 172.33 331.15 172.42C330.179 172.744 329.233 173.138 328.32 173.6C327.42 174.19 331.43 173.93 336.99 173.06C342.243 172.32 347.503 171.653 352.77 171.06C358.38 170.53 363.62 169.61 364.24 169.06C364.505 168.709 364.814 168.393 365.16 168.12C365.82 167.94 361.83 168.21 356.52 168.7V168.72ZM447.13 171.72C440.017 170.513 432.833 169.513 425.58 168.72C420.32 168.23 416.39 167.95 416.71 168.11C417.175 168.383 417.599 168.719 417.97 169.11C418.26 169.63 423.5 170.55 429.43 171.11C434.7 171.7 439.95 172.37 444.88 173.11C450.77 174.04 454.45 174.24 453.55 173.65C452.65 173.06 451.68 172.79 451.05 172.54C450.42 172.29 449.05 172.13 447.13 171.75V171.72ZM490.82 182.24C480.82 179.087 470.617 176.42 460.21 174.24C459.88 174.24 459.55 174.16 459.87 174.24C460.836 174.552 461.778 174.933 462.69 175.38C466.448 176.742 470.297 177.835 474.21 178.65C478.72 179.75 483.21 180.92 487.71 182.16C492.82 183.65 495.44 184.16 493.92 183.49L490.82 182.24ZM632.65 271.01C632.32 270.66 632 270.31 631.65 270.01C632.1 270.42 632.36 270.7 632.65 271.01ZM640.52 279.63C638.1 276.89 635.637 274.187 633.13 271.52L633.85 272.3C635.61 274.26 638.74 277.66 640.52 279.63ZM588.09 768.45C591.377 766.03 594.617 763.557 597.81 761.03L596.81 761.79C594.16 763.79 590.45 766.65 588.33 768.25L588.06 768.45H588.09ZM559.15 787.52C563.97 784.687 568.71 781.743 573.37 778.69C575.8 777.02 575.81 777.01 578.49 775.06L579.49 774.59L578.92 774.98L578.51 775.06C580.63 773.44 579.66 773.79 576.27 775.9C573.13 777.79 570.27 779.45 566.78 781.42C563.273 783.315 559.896 785.439 556.67 787.78C555.07 789 553.443 790.177 551.79 791.31C549.79 792.57 551.05 792.04 554.56 790.12L559.15 787.52ZM526.01 804.52C528.45 803.44 530.87 802.32 533.28 801.18C533.061 801.229 532.849 801.307 532.65 801.41C530.53 802.41 528.11 803.5 526.01 804.52ZM441.81 829.23C451.45 827.75 460.94 825.857 470.28 823.55L470.59 823.42C471.77 823.074 472.928 822.66 474.06 822.18C475.27 821.58 471.96 822.04 466.78 823.18C462.23 824.13 457.34 825.08 452.78 825.89C447.21 826.81 442.36 827.94 441.43 828.48C440.836 828.849 440.21 829.163 439.56 829.42C439.23 829.57 439.87 829.5 441.81 829.26V829.23ZM402.43 832.89L406.61 832.73L409.77 832.56C414.323 832.313 418.85 831.98 423.35 831.56C426.99 831.18 429.64 830.85 430.29 830.69C430.844 830.437 431.367 830.122 431.85 829.75C432.45 829.21 428.44 829.19 422.51 829.75C417.23 830.17 411.943 830.503 406.65 830.75C400.74 831.01 395.74 831.55 395.74 832.01C395.74 832.47 395.74 832.67 395.42 832.88C397.754 833.035 400.095 833.048 402.43 832.92V832.89ZM409.43 167.65C409.43 167.88 409.73 168.21 410.04 168.65C410.35 169.09 405.68 169.54 399.4 169.34C393.78 169.26 387.82 169.26 382.2 169.34C375.92 169.54 371.26 169.22 371.56 168.65C371.823 168.273 372.14 167.936 372.5 167.65C372.82 167.49 377.29 167.24 382.79 167.06C384.36 167.06 385.93 167.06 387.5 167H394.15C395.73 167 397.31 167 398.89 167.06C404.34 167.26 409.09 167.52 409.4 167.68L409.43 167.65ZM437.52 177.81C436.85 176.729 436.236 175.614 435.68 174.47C434.83 173.47 429.34 172.17 423.42 171.61C418.16 171.2 412.56 170.84 406.96 170.61C401.02 170.4 396.07 171.01 396.05 171.97C396.31 173.032 396.404 174.129 396.33 175.22C396.63 176.66 402.08 178.04 408.84 178.27C414.96 178.58 420.75 178.95 426.84 179.43C433.59 180.01 438.26 179.31 437.49 177.84L437.52 177.81Z" fill="url(#paint0_linear_253_2570)"/>
<path fill-rule="evenodd" clip-rule="evenodd" d="M617.74 616.954C606.317 626.792 593.43 634.793 579.544 640.668C577.613 641.486 575.661 642.263 573.687 643C575.448 639.713 571.812 632.923 559.958 621.103L475.299 536.494C473.063 538.367 470.814 540.24 468.552 542.113L474.222 547.779V604.844C464.13 600.296 454.666 594.469 446.061 587.508C442.763 584.836 439.605 582.026 436.587 579.079C434.46 576.981 432.408 574.799 430.43 572.523V571.268C428.875 572.336 427.31 573.394 425.745 574.425C394.764 594.86 362.368 608.909 327.554 609.134C306.095 609.391 285.054 603.191 267.167 591.339C202.141 547.573 202.6 453.148 268.554 410.104C279.025 403.27 290.664 398.416 302.889 395.784C334.255 389.031 365.339 395.859 389.919 413.644C394.589 417.012 398.977 420.755 403.039 424.836C407.14 428.909 410.886 433.324 414.237 438.032L389.432 462.823L313.788 538.423C310.532 541.526 306.19 543.233 301.691 543.179C297.191 543.126 292.892 541.316 289.71 538.136C286.529 534.956 284.717 530.659 284.664 526.163C284.61 521.666 286.318 517.327 289.423 514.072L365.095 438.444C348.736 428.599 329.19 425.492 310.582 429.779C291.974 434.066 275.761 445.411 265.364 461.419C254.968 477.428 251.203 496.847 254.863 515.578C258.523 534.309 269.323 550.886 284.981 561.809C297.319 570.351 312.003 574.86 327.011 574.715C356.417 574.612 385.543 560.582 414.265 540.511C418.107 537.814 421.903 535.004 425.745 532.139L430.43 528.523V394.885C443.466 384.104 458.286 375.683 474.222 370V486.397L485.111 482.276C498.961 469.969 512.662 457.925 526.269 446.761L564.147 408.905C565.44 409.336 566.724 409.776 568.008 410.244C581.106 415.027 593.294 422.005 604.049 430.877L517.835 517.041L617.74 616.954Z" fill="url(#paint1_linear_253_2570)"/>
<path d="M693.76 465.359H725.691L744.002 513.815L750.45 532.826H751.173L757.642 513.815L775.209 465.359H807.16V581.984H778.454V547.538C778.454 535.698 780.954 517.576 782.401 505.922H781.678L771.985 533.177L755.844 572.438H744.353L728.212 533.177L718.871 505.922H718.147C719.594 517.576 722.095 535.698 722.095 547.538V581.984H693.76V465.359ZM876.415 523.858C875.692 517.39 871.745 514.518 863.85 514.518C857.381 514.518 850.561 517.039 841.24 522.06L830.473 501.954C843.038 494.433 855.955 490.114 869.947 490.114C893.28 490.114 907.271 502.677 907.271 532.102V581.984H882.14L880.073 573.368H879.371C872.179 579.835 864.284 584.133 854.57 584.133C837.706 584.133 827.703 571.219 827.703 556.506C827.6 537.847 841.963 527.432 876.415 523.858ZM865.276 560.453C870.298 560.453 873.171 557.932 876.415 554.357V542.145C861.7 544.315 857.03 548.964 857.03 553.985C857.03 558.118 859.902 560.453 865.276 560.453ZM927.711 492.263H952.842L954.909 507.678H955.632C962.266 495.486 972.31 490.093 981.114 490.093C984.906 489.895 988.697 490.508 992.233 491.891L987.356 518.464C984.076 517.595 980.704 517.117 977.312 517.039C970.843 517.039 962.948 520.985 958.711 532.102V581.984H927.711V492.263ZM1002.71 457.135H1032.82V523.506H1033.55L1058.35 492.304H1091.72L1059.69 529.602L1093.42 581.984H1060.15L1042.19 550.038L1032.86 560.37V581.902H1002.71V457.135ZM1137.27 490.197C1163.85 490.197 1176.4 509.579 1176.4 533.59C1176.43 537.687 1176.01 541.775 1175.16 545.782H1124.01C1126.88 557.271 1134.77 560.845 1144.82 560.845C1151.29 560.686 1157.6 558.833 1163.13 555.473L1173.17 573.76C1163.51 580.28 1152.17 583.868 1140.52 584.092C1114.31 584.092 1094.23 566.859 1094.23 537.082C1094.23 508.071 1115.49 490.114 1137.27 490.114V490.197ZM1150.21 527.164C1150.21 519.622 1147.34 513.526 1138 513.526C1131.18 513.526 1125.45 517.287 1123.65 527.164H1150.21ZM1193.61 516.398H1181.77V493.358L1195.41 492.284L1199.01 468.954H1224.49V492.284H1244.95V516.315H1224.49V547.001C1224.49 556.857 1229.51 560.081 1235.26 560.081C1237.95 560.023 1240.61 559.542 1243.15 558.655L1247.76 580.91C1240.92 583.095 1233.78 584.183 1226.6 584.133C1203.26 584.133 1193.53 569.421 1193.53 547.538L1193.61 516.398Z" fill="url(#paint2_linear_253_2570)"/>
<path d="M678.76 436.865C678.729 431.164 676.451 425.705 672.42 421.672C668.39 417.64 662.932 415.359 657.23 415.325C651.557 415.367 646.133 417.659 642.149 421.698C638.164 425.737 635.946 431.192 635.98 436.865C635.966 439.66 636.505 442.431 637.568 445.017C638.63 447.603 640.195 449.953 642.171 451.93C644.147 453.908 646.495 455.475 649.08 456.54C651.664 457.605 654.435 458.147 657.23 458.135H657.38C657.9 458.135 658.38 458.135 658.92 458.065H659.39C659.844 458.011 660.284 457.951 660.71 457.885L661.48 457.755L662.32 457.565C662.74 457.465 663.14 457.355 663.55 457.235L663.71 457.185C666.397 456.359 668.897 455.017 671.07 453.235H671C673.43 451.256 675.388 448.759 676.731 445.927C678.073 443.095 678.766 439.999 678.76 436.865Z" fill="url(#paint3_linear_253_2570)"/>
<path d="M648.97 591.765L669.32 482.895C662.352 482.409 655.358 482.409 648.39 482.895H620.39L619.8 488.205H632.2L622.46 541.025C620.39 553.415 617.74 564.025 617.74 573.185C617.74 587.345 627.74 597.675 646.06 597.675C650.312 597.693 654.512 596.746 658.345 594.907C662.178 593.068 665.544 590.383 668.19 587.055L663.77 583.515C661.994 585.816 659.771 587.734 657.234 589.153C654.698 590.573 651.9 591.465 649.01 591.775V591.775L648.97 591.765Z" fill="url(#paint4_linear_253_2570)"/>
<defs>
<linearGradient id="paint0_linear_253_2570" x1="358.25" y1="166.94" x2="356.85" y2="832.95" gradientUnits="userSpaceOnUse">
<stop stop-color="#00DC39"/>
<stop offset="1" stop-color="#002C51"/>
</linearGradient>
<linearGradient id="paint1_linear_253_2570" x1="218.737" y1="506.495" x2="617.74" y2="506.495" gradientUnits="userSpaceOnUse">
<stop stop-color="#00DC39"/>
<stop offset="1" stop-color="#002C51"/>
</linearGradient>
<linearGradient id="paint2_linear_253_2570" x1="693.76" y1="520.613" x2="1247.8" y2="520.613" gradientUnits="userSpaceOnUse">
<stop stop-color="#00DC39"/>
<stop offset="1" stop-color="#002C51"/>
</linearGradient>
<linearGradient id="paint3_linear_253_2570" x1="664.06" y1="455.795" x2="646.79" y2="407.025" gradientUnits="userSpaceOnUse">
<stop stop-color="#00DC39"/>
<stop offset="1" stop-color="#002C51"/>
</linearGradient>
<linearGradient id="paint4_linear_253_2570" x1="664.46" y1="589.515" x2="616.66" y2="454.555" gradientUnits="userSpaceOnUse">
<stop stop-color="#00DC39"/>
<stop offset="1" stop-color="#002C51"/>
</linearGradient>
</defs>
</svg>
