<svg width="32" height="32" viewBox="0 0 32 32" fill="none" xmlns="http://www.w3.org/2000/svg">
<path d="M6.09145 19.2704H9.67601V21.0866H6.09145C5.61351 21.0866 5.18336 21.4689 5.18336 21.9947C5.18336 22.5204 5.56572 22.9027 6.09145 22.9027H28.4591C28.937 22.9027 29.3672 23.2851 29.3672 23.8108C29.3672 24.2888 28.9848 24.7189 28.4591 24.7189H6.04366C4.56204 24.7189 3.36719 23.5241 3.36719 22.0425C3.36719 20.4652 4.60984 19.2704 6.09145 19.2704M5.42233 13.105L7.19072 12.9616C7.19072 12.9138 6.09145 6.36598 5.85248 5.02775C5.7091 4.26304 5.42233 2.1123 2.69807 2.1123V3.92848C3.79733 3.92848 3.94072 4.35863 4.0363 5.17113C4.32307 6.50936 5.42233 13.0094 5.42233 13.105Z" fill="#B2C1C0"/>
<path d="M5.32795 6.70068H29.5596C30.4677 6.70068 30.611 7.56098 30.4677 8.03892L27.7434 20.1786C27.6 20.6566 27.1221 21.0389 26.5963 21.0389H7.57427C7.09633 21.0389 6.61839 20.6566 6.5228 20.1308L4.51545 7.56098C4.46765 7.13083 4.85001 6.70068 5.32795 6.70068M28.1735 10.7632L28.6515 8.94701C28.6993 8.70804 28.5559 8.51686 28.3169 8.51686H24.9235C24.6846 8.51686 24.4456 8.70804 24.4456 8.94701L24.2544 10.7632C24.2066 11.0022 24.3978 11.1933 24.6368 11.1933H27.6478C27.8868 11.1933 28.1257 11.0022 28.1735 10.7632ZM26.6441 15.208C26.8831 15.208 27.1221 15.0169 27.2177 14.7779L27.5522 13.3919C27.6 13.1529 27.4566 12.9617 27.2177 12.9617H24.4934C24.2544 12.9617 24.0154 13.1529 24.0154 13.3919L23.8721 14.7301C23.8243 14.9691 24.0154 15.1602 24.2544 15.1602C24.2066 15.208 26.6441 15.208 26.6441 15.208M23.7765 19.2705H25.6404C25.8794 19.2705 26.1184 19.0794 26.214 18.8404L26.5485 17.4544C26.5963 17.2154 26.4529 17.0242 26.214 17.0242H24.0632C23.8243 17.0242 23.5853 17.2154 23.5853 17.4544L23.4419 18.7926C23.3463 19.0316 23.5375 19.2705 23.7765 19.2705ZM18.2802 18.7926C18.2802 19.0316 18.4713 19.2227 18.7103 19.2227H21.0522C21.2912 19.2227 21.5302 19.0316 21.5302 18.7926L21.6735 17.4544C21.7213 17.2154 21.5302 17.0242 21.2912 17.0242H18.7103C18.4713 17.0242 18.2802 17.2154 18.2802 17.4544V18.7926ZM18.2802 14.7779C18.2802 15.0169 18.4713 15.208 18.7103 15.208H21.4824C21.7213 15.208 21.9603 15.0169 21.9603 14.7779L22.1037 13.4397C22.1515 13.2007 21.9603 13.0095 21.7213 13.0095H18.7103C18.4713 13.0095 18.2802 13.2007 18.2802 13.4397V14.7779ZM18.2802 10.7632C18.2802 11.0022 18.4713 11.1933 18.7103 11.1933H21.9125C22.1515 11.1933 22.3904 11.0022 22.3904 10.7632L22.6294 8.94701C22.6772 8.70804 22.486 8.51686 22.2471 8.51686H18.7581C18.5191 8.51686 18.3279 8.70804 18.3279 8.94701C18.2802 8.94701 18.2802 10.7632 18.2802 10.7632ZM13.4052 18.7926C13.4529 19.0316 13.6441 19.2227 13.8831 19.2227H15.986C16.225 19.2227 16.4162 19.0316 16.4162 18.7926V17.4544C16.4162 17.2154 16.225 17.0242 15.986 17.0242H13.6441C13.4052 17.0242 13.214 17.2154 13.2618 17.4544L13.4052 18.7926ZM12.975 14.7779C13.0228 15.0169 13.214 15.208 13.4529 15.208H15.986C16.225 15.208 16.4162 15.0169 16.4162 14.7779V13.4397C16.4162 13.2007 16.225 13.0095 15.986 13.0095H13.214C12.975 13.0095 12.7838 13.2007 12.8316 13.4397L12.975 14.7779ZM12.5449 10.7632C12.5927 11.0022 12.7838 11.1933 13.0228 11.1933H15.986C16.225 11.1933 16.4162 11.0022 16.4162 10.7632V8.94701C16.4162 8.70804 16.225 8.51686 15.986 8.51686H12.736C12.4971 8.51686 12.3059 8.70804 12.3537 8.94701L12.5449 10.7632M8.38677 18.7926C8.43457 19.0316 8.67354 19.2227 8.91251 19.2227H11.2066C11.4456 19.2227 11.6368 19.0316 11.589 18.7926L11.4456 17.4544C11.3978 17.2154 11.2066 17.0242 10.9677 17.0242H8.53015C8.29118 17.0242 8.10001 17.2154 8.1478 17.4544L8.38677 18.7926M7.76545 14.7779C7.81324 15.0169 8.05221 15.208 8.29118 15.208H10.8243C11.0632 15.208 11.2544 15.0169 11.2066 14.7779L11.0632 13.4397C11.0154 13.2007 10.8243 13.0095 10.5853 13.0095H7.95662C7.71765 13.0095 7.52648 13.2007 7.57427 13.4397L7.76545 14.7779ZM7.14412 10.7632C7.19192 11.0022 7.43089 11.1933 7.66986 11.1933H10.3941C10.6331 11.1933 10.8243 11.0022 10.7765 10.7632L10.5853 8.94701C10.5375 8.70804 10.3463 8.51686 10.1074 8.51686H7.28751C7.04854 8.51686 6.85736 8.70804 6.90515 8.94701L7.14412 10.7632" fill="#F15744"/>
<path d="M25.5931 30.4545C24.1149 30.4545 22.9166 29.2562 22.9166 27.778C22.9166 26.2999 24.1149 25.1016 25.5931 25.1016C27.0712 25.1016 28.2695 26.2999 28.2695 27.778C28.2695 29.2562 27.0712 30.4545 25.5931 30.4545Z" fill="#62727A"/>
<path d="M25.5915 29.1159C24.8524 29.1159 24.2532 28.5168 24.2532 27.7777C24.2532 27.0386 24.8524 26.4395 25.5915 26.4395C26.3305 26.4395 26.9297 27.0386 26.9297 27.7777C26.9297 28.5168 26.3305 29.1159 25.5915 29.1159Z" fill="white"/>
<path d="M9.43681 30.4545C7.95864 30.4545 6.76034 29.2562 6.76034 27.778C6.76034 26.2999 7.95864 25.1016 9.43681 25.1016C10.915 25.1016 12.1133 26.2999 12.1133 27.778C12.1133 29.2562 10.915 30.4545 9.43681 30.4545Z" fill="#62727A"/>
<path d="M8.09892 27.7777C8.09892 28.5424 8.72024 29.1159 9.43716 29.1159C10.2019 29.1159 10.7754 28.4946 10.7754 27.7777C10.7754 27.013 10.1541 26.4395 9.43716 26.4395C8.72024 26.4395 8.09892 27.013 8.09892 27.7777Z" fill="white"/>
<path d="M2.26919 1.77783H3.60742V4.4543H2.26919C2.03022 4.4543 1.83904 4.26313 1.83904 4.02416V2.20798C1.83904 1.96901 2.03022 1.77783 2.26919 1.77783Z" fill="#62727A"/>
<path d="M25.5912 24.1934C27.5508 24.1934 29.1758 25.8184 29.1758 27.7779H22.0067C22.0067 25.7706 23.5839 24.1934 25.5912 24.1934ZM9.43681 24.1934C11.3964 24.1934 13.0214 25.8184 13.0214 27.7779H5.85225C5.85225 25.7706 7.47725 24.1934 9.43681 24.1934Z" fill="#F15744"/>
</svg>
