<svg width="40" height="53" viewBox="0 0 40 53" fill="none" xmlns="http://www.w3.org/2000/svg">
<path d="M39.7478 33.7763C39.1967 32.0873 37.3569 31.1895 35.6592 31.7407L31.6239 33.0829L28.9308 25.0827L32.9661 23.7404C34.6637 23.1893 35.5525 21.3581 35.0104 19.6603C34.4593 17.9713 32.6194 17.0735 30.9218 17.6246L26.8865 18.9669L25.491 14.789C24.94 13.1001 23.1001 12.2022 21.4025 12.7534C19.7048 13.3045 18.816 15.1357 19.3582 16.8335L20.7536 21.0114L12.452 23.7848L11.0565 19.6069C10.5055 17.918 8.66559 17.0202 6.96794 17.5713C5.27028 18.1224 4.38146 19.9536 4.92364 21.6514L6.3191 25.8294L2.29272 27.1627C0.595068 27.7139 -0.293757 29.545 0.248426 31.2429C0.692839 32.5318 1.94608 33.3763 3.23488 33.4296C3.83928 33.5185 4.30147 33.2874 8.36339 31.9362L11.0565 39.9365L7.02127 41.2787C5.3325 41.8299 4.43479 43.6699 4.97697 45.3589C5.42139 46.6478 6.67463 47.4923 7.96342 47.5456C8.56782 47.6345 9.03001 47.4034 13.0919 46.0522L14.4874 50.2301C15.0118 51.7324 16.6828 52.808 18.576 52.2658C20.2736 51.7146 21.1625 49.8835 20.6203 48.1856L19.2248 44.0077L27.5442 41.2254L28.9397 45.4033C29.4641 46.9056 31.1351 47.9812 33.0283 47.4389C34.7259 46.8878 35.6148 45.0566 35.0726 43.3588L33.6771 39.1809L37.7124 37.8386C39.4011 37.3053 40.2989 35.4652 39.7478 33.7763ZM17.1628 37.972L14.4696 29.9539L22.7801 27.1716L25.4733 35.1897L17.1628 37.972Z" fill="#0D0D0D"/>
</svg>
